<svg width="81.000000" height="81.000000" viewBox="0 0 81 81" fill="none" xmlns="http://www.w3.org/2000/svg" xmlns:xlink="http://www.w3.org/1999/xlink">
	<desc>
			Created with Pixso.
	</desc>
	<defs>
		<clipPath id="clip5_206">
			<rect id="icons2/3" rx="0.000000" width="80.000000" height="80.000000" transform="translate(0.500000 0.500000)" fill="white" fill-opacity="0"/>
		</clipPath>
	</defs>
	<g clip-path="url(#clip5_206)">
		<path id="Rectangle" d="M36.59 68.25L10 68.25Q7.41 68.25 5.58 66.41Q3.75 64.58 3.75 62L3.75 58.5L3.75 22Q3.75 19.41 5.58 17.58Q7.41 15.75 10 15.75L12.2 15.75L68.82 15.75L70 15.75Q72.58 15.75 74.41 17.58Q76.25 19.41 76.25 22L76.25 58.5L76.25 63.11Q76.25 65.23 74.74 66.74Q73.23 68.25 71.11 68.25L71.11 65.75Q72.2 65.75 72.97 64.97Q73.75 64.2 73.75 63.11L73.75 58.5L73.75 22Q73.75 18.25 70 18.25L68.82 18.25L12.2 18.25L10 18.25Q6.25 18.25 6.25 22L6.25 58.5L6.25 62Q6.25 65.75 10 65.75L36.59 65.75L36.59 68.25ZM5 57.25L36.59 57.25L36.59 59.75L5 59.75L5 57.25ZM75 59.75L71.11 59.75L71.11 57.25L75 57.25L75 59.75Z" fill="#F14D34" fill-opacity="1.000000" fill-rule="evenodd"/>
		<path id="Vector" d="M18 28L14 31.5L18 35" stroke="#050C33" stroke-opacity="1.000000" stroke-width="2.500000"/>
		<path id="Vector" d="M28 28L32 31.5L28 35" stroke="#050C33" stroke-opacity="1.000000" stroke-width="2.500000"/>
		<path id="Vector 2" d="M21 37L25 25" stroke="#050C33" stroke-opacity="1.000000" stroke-width="2.500000"/>
		<path id="Vector" d="M42 28.5C43.48 28.5 59.28 28.5 67 28.5" stroke="#F14D34" stroke-opacity="1.000000" stroke-width="2.500000"/>
		<path id="Vector" d="M42 33C43.48 33 59.28 33 67 33" stroke="#F14D34" stroke-opacity="1.000000" stroke-width="2.500000"/>
		<path id="Vector" d="M42 37C43.48 37 59.28 37 67 37" stroke="#F14D34" stroke-opacity="1.000000" stroke-width="2.500000"/>
		<path id="Vector" d="M42 41C42.59 41 48.91 41 52 41" stroke="#F14D34" stroke-opacity="1.000000" stroke-width="2.500000"/>
		<path id="Vector" d="M11 44C12.24 44 25.51 44 32 44" stroke="#F14D34" stroke-opacity="1.000000" stroke-width="2.500000"/>
		<path id="Vector" d="M11 52C12.24 52 25.51 52 32 52" stroke="#F14D34" stroke-opacity="1.000000" stroke-width="2.500000"/>
		<path id="Vector" d="M11 48C11.82 48 20.67 48 25 48" stroke="#F14D34" stroke-opacity="1.000000" stroke-width="2.500000"/>
		<path id="Rectangle" d="M41 68.25L32 68.25L32 65.75L41 65.75L41 68.25Z" fill="#F14D34" fill-opacity="1.000000" fill-rule="evenodd"/>
		<path id="Rectangle" d="M37 77.25L23 77.25L23 74.75L37 74.75L37 77.25Z" fill="#F14D34" fill-opacity="1.000000" fill-rule="evenodd"/>
		<rect id="Rectangle 2" x="39.250000" y="51.250000" rx="4.750000" width="30.500000" height="9.500000" stroke="#F14D34" stroke-opacity="1.000000" stroke-width="2.500000"/>
		<path id="Vector" d="M46 56C47 56 57.75 56 63 56" stroke="#F14D34" stroke-opacity="1.000000" stroke-width="2.500000"/>
		<rect id="Rectangle 2.1" x="39.250000" y="65.250000" rx="4.750000" width="30.500000" height="9.500000" stroke="#F14D34" stroke-opacity="1.000000" stroke-width="2.500000"/>
		<path id="Vector" d="M46 70C47 70 57.75 70 63 70" stroke="#F14D34" stroke-opacity="1.000000" stroke-width="2.500000"/>
	</g>
</svg>
