<svg width="81.000000" height="81.000000" viewBox="0 0 81 81" fill="none" xmlns="http://www.w3.org/2000/svg" xmlns:xlink="http://www.w3.org/1999/xlink">
	<desc>
			Created with Pixso.
	</desc>
	<defs>
		<clipPath id="clip5_190">
			<rect id="icons2/1" rx="0.000000" width="80.000000" height="80.000000" transform="translate(0.500000 0.500000)" fill="white" fill-opacity="0"/>
		</clipPath>
	</defs>
	<g clip-path="url(#clip5_190)">
		<path id="Rectangle" d="M33.86 68.25L10 68.25Q7.82 68.25 6.28 66.71Q4.75 65.17 4.75 63L4.75 58.5L4.75 21Q4.75 18.82 6.28 17.28Q7.82 15.75 10 15.75L13 15.75L13 18.25L10 18.25Q7.25 18.25 7.25 21L7.25 58.5L7.25 63Q7.25 65.75 10 65.75L33.86 65.75L33.86 68.25ZM6 57.25L27.5 57.25L27.5 59.75L6 59.75L6 57.25ZM68 15.75L70 15.75Q72.17 15.75 73.71 17.28Q75.25 18.82 75.25 21L75.25 58.5L75.25 63.22Q75.25 65.3 73.77 66.77Q72.3 68.25 70.22 68.25L70.22 65.75Q71.26 65.75 72 65Q72.75 64.26 72.75 63.22L72.75 58.5L72.75 21Q72.75 18.25 70 18.25L68 18.25L68 15.75ZM74 59.75L61.5 59.75L61.5 57.25L74 57.25L74 59.75Z" fill="#F14D34" fill-opacity="1.000000" fill-rule="evenodd"/>
		<path id="Rectangle" d="M59.44 58.67L69.58 68.81Q70.14 69.37 70.44 70.1Q70.73 70.81 70.73 71.57Q70.73 72.33 70.44 73.04Q70.14 73.77 69.58 74.33Q69.02 74.89 68.29 75.19Q67.58 75.48 66.82 75.48Q66.06 75.48 65.35 75.19Q64.62 74.89 64.06 74.33L53.92 64.19L55.68 62.42L65.83 72.57Q66.03 72.77 66.29 72.87Q66.54 72.98 66.82 72.98Q67.1 72.98 67.35 72.87Q67.61 72.77 67.81 72.57Q68.02 72.36 68.12 72.1Q68.23 71.85 68.23 71.57Q68.23 71.29 68.12 71.04Q68.02 70.78 67.81 70.58L57.67 60.44L59.44 58.67Z" fill="#050C33" fill-opacity="1.000000" fill-rule="evenodd"/>
		<path id="Rectangle" d="M49.25 71L49.25 77.25L30.75 77.25L30.75 67.5L33.25 67.5L33.25 76L32 76L32 74.75L48 74.75L48 76L46.75 76L46.75 71L49.25 71Z" fill="#F14D34" fill-opacity="1.000000" fill-rule="evenodd"/>
		<path id="Rectangle" d="M57 77.25L23 77.25L23 74.75L57 74.75L57 77.25Z" fill="#F14D34" fill-opacity="1.000000" fill-rule="evenodd"/>
		<circle id="Ellipse" r="16.810659" transform="matrix(0.707107 -0.707107 0.707107 0.707107 46.5417 50.5416)" stroke="#F14D34" stroke-opacity="1.000000" stroke-width="2.500000"/>
		<circle id="Ellipse" r="16.810659" transform="matrix(0.707107 -0.707107 0.707107 0.707107 46.5417 50.5416)" stroke="#050C33" stroke-opacity="1.000000" stroke-width="2.500000"/>
		<path id="Rectangle" d="M16.75 51L16.75 10Q16.75 7.82 18.28 6.28Q19.82 4.75 22 4.75L59 4.75Q61.17 4.75 62.71 6.28Q64.25 7.82 64.25 10L64.25 34.5L61.75 34.5L61.75 10Q61.75 8.86 60.94 8.05Q60.13 7.25 59 7.25L22 7.25Q19.25 7.25 19.25 10L19.25 51L16.75 51Z" fill="#F14D34" fill-opacity="1.000000" fill-rule="evenodd"/>
		<path id="Vector" d="M28 21L52.5 21" stroke="#F14D34" stroke-opacity="1.000000" stroke-width="2.500000"/>
		<path id="Vector" d="M28 15L52.5 15" stroke="#F14D34" stroke-opacity="1.000000" stroke-width="2.500000"/>
		<path id="Vector" d="M28 27L52.5 27" stroke="#F14D34" stroke-opacity="1.000000" stroke-width="2.500000"/>
		<path id="Vector" d="M39 53L50 53" stroke="#050C33" stroke-opacity="1.000000" stroke-width="2.500000"/>
		<path id="Vector" d="M39 47L55 47" stroke="#050C33" stroke-opacity="1.000000" stroke-width="2.500000"/>
	</g>
</svg>
