<svg width="81.000000" height="81.000000" viewBox="0 0 81 81" fill="none" xmlns="http://www.w3.org/2000/svg" xmlns:xlink="http://www.w3.org/1999/xlink">
	<desc>
			Created with Pixso.
	</desc>
	<defs>
		<clipPath id="clip5_227">
			<rect id="icons2/5" rx="0.000000" width="80.000000" height="80.000000" transform="translate(0.500000 0.500000)" fill="white" fill-opacity="0"/>
		</clipPath>
	</defs>
	<g clip-path="url(#clip5_227)">
		<path id="Rectangle" d="M53.5 13.75L70.47 13.75L72 13.75Q74.58 13.75 76.41 15.58Q78.25 17.41 78.25 20L78.25 59.82L78.25 64.88Q78.25 67.1 76.67 68.67Q75.1 70.25 72.88 70.25L33.31 70.25L8 70.25Q5.41 70.25 3.58 68.41Q1.75 66.58 1.75 64L1.75 59.82L1.75 20Q1.75 17.41 3.58 15.58Q5.41 13.75 8 13.75L10.61 13.75L14 13.75L14 16.25L10.61 16.25L8 16.25Q4.25 16.25 4.25 20L4.25 59.82L4.25 64Q4.25 67.75 8 67.75L33.31 67.75L72.88 67.75Q75.75 67.75 75.75 64.88L75.75 59.82L75.75 20Q75.75 16.25 72 16.25L70.47 16.25L53.5 16.25L53.5 13.75ZM61 58.57L77 58.57L77 61.07L61 61.07L61 58.57ZM3 58.57L44.5 58.57L44.5 61.07L3 61.07L3 58.57Z" fill="#F14D34" fill-opacity="1.000000" fill-rule="evenodd"/>
		<path id="Rectangle" d="M41 54.25L24.3 54.25L19 54.25Q16.41 54.25 14.58 52.41Q12.75 50.58 12.75 48L12.75 12Q12.75 9.41 14.58 7.58Q16.41 5.75 19 5.75L24.3 5.75L48 5.75Q50.58 5.75 52.41 7.58Q54.25 9.41 54.25 12L54.25 41.5L51.75 41.5L51.75 12Q51.75 8.25 48 8.25L24.3 8.25L19 8.25Q15.25 8.25 15.25 12L15.25 48Q15.25 49.55 16.34 50.65Q17.44 51.75 19 51.75L24.3 51.75L41 51.75L41 54.25Z" fill="#F14D34" fill-opacity="1.000000" fill-rule="evenodd"/>
		<path id="Rectangle" d="M29 18L29 15C29 13.34 30.34 12 32 12L42 12C43.65 12 45 13.34 45 15L45 18C45 19.65 43.65 21 42 21L32 21C30.34 21 29 19.65 29 18ZM31.5 18L31.5 15Q31.5 14.89 31.53 14.8Q31.57 14.71 31.64 14.64Q31.71 14.57 31.8 14.53Q31.89 14.5 32 14.5L33.22 14.5L42 14.5Q42.1 14.5 42.19 14.53Q42.28 14.57 42.35 14.64Q42.42 14.71 42.46 14.8Q42.5 14.89 42.5 15L42.5 18Q42.5 18.1 42.46 18.19Q42.42 18.28 42.35 18.35Q42.28 18.42 42.19 18.46Q42.1 18.5 42 18.5L32 18.5Q31.89 18.5 31.8 18.46Q31.71 18.42 31.64 18.35Q31.57 18.28 31.53 18.19Q31.5 18.1 31.5 18Z" fill="#F14D34" fill-opacity="1.000000" fill-rule="evenodd"/>
		<path id="Rectangle" d="M29 44L29 41C29 39.34 30.34 38 32 38L42 38C43.65 38 45 39.34 45 41L45 44C45 45.65 43.65 47 42 47L32 47C30.34 47 29 45.65 29 44ZM31.5 44L31.5 41Q31.5 40.89 31.53 40.8Q31.57 40.71 31.64 40.64Q31.71 40.57 31.8 40.53Q31.89 40.5 32 40.5L33.22 40.5L42 40.5Q42.1 40.5 42.19 40.53Q42.28 40.57 42.35 40.64Q42.42 40.71 42.46 40.8Q42.5 40.89 42.5 41L42.5 44Q42.5 44.1 42.46 44.19Q42.42 44.28 42.35 44.35Q42.28 44.42 42.19 44.46Q42.1 44.5 42 44.5L32 44.5Q31.89 44.5 31.8 44.46Q31.71 44.42 31.64 44.35Q31.57 44.28 31.53 44.19Q31.5 44.1 31.5 44Z" fill="#F14D34" fill-opacity="1.000000" fill-rule="evenodd"/>
		<path id="Rectangle" d="M29 31L29 28C29 26.34 30.34 25 32 25L42 25C43.65 25 45 26.34 45 28L45 31C45 32.65 43.65 34 42 34L32 34C30.34 34 29 32.65 29 31ZM31.5 31L31.5 28Q31.5 27.89 31.53 27.8Q31.57 27.71 31.64 27.64Q31.71 27.57 31.8 27.53Q31.89 27.5 32 27.5L33.22 27.5L42 27.5Q42.1 27.5 42.19 27.53Q42.28 27.57 42.35 27.64Q42.42 27.71 42.46 27.8Q42.5 27.89 42.5 28L42.5 31Q42.5 31.1 42.46 31.19Q42.42 31.28 42.35 31.35Q42.28 31.42 42.19 31.46Q42.1 31.5 42 31.5L32 31.5Q31.89 31.5 31.8 31.46Q31.71 31.42 31.64 31.35Q31.57 31.28 31.53 31.19Q31.5 31.1 31.5 31Z" fill="#F14D34" fill-opacity="1.000000" fill-rule="evenodd"/>
		<path id="Rectangle" d="M49.25 69L49.25 77.25L30.75 77.25L30.75 69L33.25 69L33.25 76L32 76L32 74.75L48 74.75L48 76L46.75 76L46.75 69L49.25 69Z" fill="#F14D34" fill-opacity="1.000000" fill-rule="evenodd"/>
		<path id="Rectangle" d="M57 77.25L23 77.25L23 74.75L57 74.75L57 77.25Z" fill="#F14D34" fill-opacity="1.000000" fill-rule="evenodd"/>
		<circle id="Ellipse" cx="52.000000" cy="53.000000" r="10.750000" stroke="#050C33" stroke-opacity="1.000000" stroke-width="2.500000"/>
		<path id="Vector" d="M48 53C48.47 53 53.53 53 56 53" stroke="#050C33" stroke-opacity="1.000000" stroke-width="2.500000"/>
		<path id="Vector" d="M52 49C52 49.47 52 54.53 52 57" stroke="#050C33" stroke-opacity="1.000000" stroke-width="2.500000"/>
		<path id="Vector" d="M18.5 14L25.5 14" stroke="#F14D34" stroke-opacity="1.000000" stroke-width="3.000000"/>
		<path id="Vector" d="M18.5 19L22.5 19" stroke="#F14D34" stroke-opacity="1.000000" stroke-width="3.000000"/>
		<path id="Vector" d="M18.5 27L25.5 27" stroke="#F14D34" stroke-opacity="1.000000" stroke-width="3.000000"/>
		<path id="Vector" d="M18.5 32L22.5 32" stroke="#F14D34" stroke-opacity="1.000000" stroke-width="3.000000"/>
		<path id="Vector" d="M18.5 40L25.5 40" stroke="#F14D34" stroke-opacity="1.000000" stroke-width="3.000000"/>
		<path id="Vector" d="M18.5 45L22.5 45" stroke="#F14D34" stroke-opacity="1.000000" stroke-width="3.000000"/>
	</g>
</svg>
