<svg width="81.000000" height="81.000000" viewBox="0 0 81 81" fill="none" xmlns="http://www.w3.org/2000/svg" xmlns:xlink="http://www.w3.org/1999/xlink">
	<desc>
			Created with Pixso.
	</desc>
	<defs>
		<clipPath id="clip5_193">
			<rect id="icons2/2" rx="0.000000" width="80.000000" height="80.000000" transform="translate(0.500000 0.500000)" fill="white" fill-opacity="0"/>
		</clipPath>
	</defs>
	<g clip-path="url(#clip5_193)">
		<path id="Rectangle" d="M10 16C7.23 16 5 18.23 5 21L5 63C5 65.76 7.23 68 10 68L70 68C72.76 68 75 65.76 75 63L75 21C75 18.23 72.76 16 70 16L10 16ZM21 18.5L10 18.5Q8.75 18.5 8.12 19.12Q7.5 19.75 7.5 21L7.5 63Q7.5 63.51 7.68 63.95Q7.86 64.4 8.23 64.76Q8.59 65.13 9.04 65.31Q9.48 65.5 10 65.5L21 65.5L21 18.5ZM26 65.5L70 65.5Q71.25 65.5 71.87 64.87Q72.5 64.25 72.5 63L72.5 21Q72.5 19.75 71.87 19.12Q71.25 18.5 70 18.5L26 18.5L26 65.5Z" fill="#F14D34" fill-opacity="1.000000" fill-rule="evenodd"/>
		<path id="Vector" d="M30.5 24L37.5 24" stroke="#F14D34" stroke-opacity="1.000000" stroke-width="2.500000"/>
		<path id="Vector" d="M11 24L18 24" stroke="#F14D34" stroke-opacity="1.000000" stroke-width="2.500000"/>
		<path id="Vector" d="M11 35L18 35" stroke="#F14D34" stroke-opacity="1.000000" stroke-width="2.500000"/>
		<path id="Vector" d="M11 41L18 41" stroke="#F14D34" stroke-opacity="1.000000" stroke-width="2.500000"/>
		<path id="Vector" d="M11 47L18 47" stroke="#F14D34" stroke-opacity="1.000000" stroke-width="2.500000"/>
		<path id="Vector" d="M11 53L15 53" stroke="#F14D34" stroke-opacity="1.000000" stroke-width="2.500000"/>
		<path id="Vector" d="M41 24L48 24" stroke="#F14D34" stroke-opacity="1.000000" stroke-width="2.500000"/>
		<path id="Vector" d="M52 24L59 24" stroke="#F14D34" stroke-opacity="1.000000" stroke-width="2.500000"/>
		<path id="CRM" d="M34.52 47.7Q35.58 48.16 36.85 48.16Q38.12 48.16 39.16 47.71Q39.77 47.45 40.27 47.04Q40.61 46.76 40.89 46.41L39.44 45.07Q38.88 45.72 38.18 46Q37.62 46.23 36.97 46.23Q36.16 46.23 35.5 45.91Q35.42 45.87 35.35 45.83Q34.98 45.63 34.7 45.34Q34.43 45.07 34.24 44.72Q34.2 44.65 34.17 44.59Q33.84 43.92 33.84 43.09Q33.84 42.28 34.16 41.62Q34.19 41.55 34.24 41.47Q34.44 41.11 34.72 40.83Q35 40.55 35.35 40.36Q35.42 40.32 35.5 40.28Q36.16 39.96 36.97 39.96Q37.64 39.96 38.2 40.19Q38.89 40.48 39.44 41.11L40.89 39.76Q40.62 39.44 40.31 39.18Q39.8 38.75 39.16 38.48Q38.14 38.03 36.86 38.03Q35.54 38.03 34.45 38.53Q34.29 38.6 34.14 38.68Q33.45 39.05 32.93 39.58Q32.53 39.99 32.23 40.49Q32.08 40.74 31.96 41.01Q31.54 41.96 31.54 43.09Q31.54 44.22 31.95 45.16Q32.08 45.44 32.23 45.71Q32.53 46.2 32.92 46.6Q33.44 47.14 34.14 47.51Q34.32 47.61 34.52 47.7ZM46.77 45.26L48.66 48L51.1 48L48.9 44.84Q49.69 44.5 50.18 43.91Q50.29 43.78 50.39 43.64Q50.45 43.55 50.49 43.47Q50.92 42.73 50.92 41.75Q50.92 40.77 50.5 40.03Q50.45 39.94 50.4 39.86Q50.3 39.71 50.18 39.57Q49.7 38.98 48.92 38.63Q47.96 38.2 46.66 38.2L42.42 38.2L42.42 48L44.69 48L44.69 45.26L46.77 45.26ZM61.61 42.12L61.63 48L63.76 48L63.73 38.2L61.87 38.2L58.25 44.29L54.59 38.2L52.71 38.2L52.71 48L54.84 48L54.84 42.24L57.71 46.96L58.73 46.96L61.61 42.12ZM48.33 40.75Q48.62 41.15 48.62 41.75Q48.62 42.33 48.35 42.72Q48.24 42.88 48.09 43.01Q47.56 43.46 46.53 43.46L44.69 43.46L44.69 40.04L46.53 40.04Q47.56 40.04 48.09 40.49Q48.23 40.6 48.33 40.75Z" fill="#050C33" fill-opacity="1.000000" fill-rule="evenodd"/>
	</g>
</svg>
