<svg width="81.000000" height="81.000000" viewBox="0 0 81 81" fill="none" xmlns="http://www.w3.org/2000/svg" xmlns:xlink="http://www.w3.org/1999/xlink">
	<desc>
			Created with Pixso.
	</desc>
	<defs>
		<clipPath id="clip5_248">
			<rect id="icons2/6" rx="0.000000" width="80.000000" height="80.000000" transform="translate(0.500000 0.500000)" fill="white" fill-opacity="0"/>
		</clipPath>
	</defs>
	<g clip-path="url(#clip5_248)">
		<path id="Rectangle" d="M76.25 51L76.25 63Q76.25 64.27 75.75 65.43Q75.28 66.55 74.41 67.41Q73.55 68.28 72.43 68.75Q71.27 69.25 70 69.25L10 69.25Q8.72 69.25 7.56 68.75Q6.44 68.28 5.58 67.41Q4.71 66.55 4.24 65.43Q3.75 64.27 3.75 63L3.75 51L6.25 51L6.25 63Q6.25 63.76 6.54 64.45Q6.82 65.13 7.34 65.65Q7.86 66.17 8.54 66.45Q9.23 66.75 10 66.75L70 66.75Q70.76 66.75 71.45 66.45Q72.13 66.17 72.65 65.65Q73.17 65.13 73.45 64.45Q73.75 63.76 73.75 63L73.75 51L76.25 51Z" fill="#F14D34" fill-opacity="1.000000" fill-rule="evenodd"/>
		<path id="Rectangle" d="M9 61L9 54C9 52.34 10.34 51 12 51L68 51C69.65 51 71 52.34 71 54L71 61C71 62.65 69.65 64 68 64L12 64C10.34 64 9 62.65 9 61ZM11.5 61L11.5 54Q11.5 53.89 11.53 53.8Q11.57 53.71 11.64 53.64Q11.71 53.57 11.8 53.53Q11.89 53.5 12 53.5L68 53.5Q68.1 53.5 68.19 53.53Q68.28 53.57 68.35 53.64Q68.42 53.71 68.46 53.8Q68.5 53.89 68.5 54L68.5 61Q68.5 61.1 68.46 61.19Q68.42 61.28 68.35 61.35Q68.28 61.42 68.19 61.46Q68.1 61.5 68 61.5L12 61.5Q11.89 61.5 11.8 61.46Q11.71 61.42 11.64 61.35Q11.57 61.28 11.53 61.19Q11.5 61.1 11.5 61Z" fill="#F14D34" fill-opacity="1.000000" fill-rule="evenodd"/>
		<path id="Rectangle" d="M9 45L9 38C9 36.34 10.34 35 12 35L68 35C69.65 35 71 36.34 71 38L71 45C71 46.65 69.65 48 68 48L12 48C10.34 48 9 46.65 9 45ZM11.5 45L11.5 38Q11.5 37.89 11.53 37.8Q11.57 37.71 11.64 37.64Q11.71 37.57 11.8 37.53Q11.89 37.5 12 37.5L68 37.5Q68.1 37.5 68.19 37.53Q68.28 37.57 68.35 37.64Q68.42 37.71 68.46 37.8Q68.5 37.89 68.5 38L68.5 45Q68.5 45.1 68.46 45.19Q68.42 45.28 68.35 45.35Q68.28 45.42 68.19 45.46Q68.1 45.5 68 45.5L12 45.5Q11.89 45.5 11.8 45.46Q11.71 45.42 11.64 45.35Q11.57 45.28 11.53 45.19Q11.5 45.1 11.5 45Z" fill="#F14D34" fill-opacity="1.000000" fill-rule="evenodd"/>
		<path id="Vector" d="M28.11 11.17L33 6.22L37.88 11.17L36.11 12.92L32.11 8.87L33 8L33.88 8.87L29.88 12.92L28.11 11.17ZM34.25 8L34.25 30L31.75 30L31.75 8L34.25 8Z" fill="#050C33" fill-opacity="1.000000" fill-rule="evenodd"/>
		<path id="Vector 2" d="M22 26.5L12.5 26.5" stroke="#F14D34" stroke-opacity="1.000000" stroke-width="2.500000"/>
		<path id="Vector 2.1" d="M22 22L5 22" stroke="#F14D34" stroke-opacity="1.000000" stroke-width="2.500000"/>
		<path id="Vector 2.2" d="M58 11L67.5 11" stroke="#F14D34" stroke-opacity="1.000000" stroke-width="2.500000"/>
		<path id="Vector 2.4" d="M58 22L63 22" stroke="#F14D34" stroke-opacity="1.000000" stroke-width="2.500000"/>
		<path id="Vector 2.3" d="M58 15.5L75 15.5" stroke="#F14D34" stroke-opacity="1.000000" stroke-width="2.500000"/>
		<path id="Vector" d="M42.11 26.82L47 31.77L51.88 26.82L50.11 25.07L46.11 29.12L47 30L47.88 29.12L43.88 25.07L42.11 26.82ZM48.25 30L48.25 7L45.75 7L45.75 30L48.25 30Z" fill="#050C33" fill-opacity="1.000000" fill-rule="evenodd"/>
	</g>
</svg>
