<svg width="81.000000" height="81.000000" viewBox="0 0 81 81" fill="none" xmlns="http://www.w3.org/2000/svg" xmlns:xlink="http://www.w3.org/1999/xlink">
	<desc>
			Created with Pixso.
	</desc>
	<defs>
		<clipPath id="clip5_262">
			<rect id="icons2/8" rx="0.000000" width="80.000000" height="80.000000" transform="translate(0.500000 0.500000)" fill="white" fill-opacity="0"/>
		</clipPath>
	</defs>
	<g clip-path="url(#clip5_262)">
		<path id="Rectangle" d="M55.25 39.5L55.25 45.62L55.25 46.03Q55.25 48.62 53.41 50.45Q51.58 52.28 49 52.28L11 52.28Q8.41 52.28 6.58 50.45Q4.75 48.62 4.75 46.03L4.75 29.51L4.75 16.27L4.75 13Q4.75 10.41 6.58 8.58Q8.41 6.75 11 6.75L49 6.75Q51.58 6.75 53.41 8.58Q55.25 10.41 55.25 13L55.25 17.52L7 17.52L7 15.02L54 15.02L54 16.27L52.75 16.27L52.75 13Q52.75 9.25 49 9.25L11 9.25Q7.25 9.25 7.25 13L7.25 16.27L7.25 29.51L7.25 46.03Q7.25 49.78 11 49.78L49 49.78Q50.55 49.78 51.65 48.68Q52.75 47.58 52.75 46.03L52.75 45.62L52.75 39.5L55.25 39.5Z" fill="#F14D34" fill-opacity="1.000000" fill-rule="evenodd"/>
		<path id="Rectangle" d="M62 28.75L69 28.75Q71.58 28.75 73.41 30.58Q75.25 32.41 75.25 35L75.25 38.27L75.25 68.03Q75.25 70.62 73.41 72.45Q71.58 74.28 69 74.28L31 74.28Q28.41 74.28 26.58 72.45Q24.75 70.62 24.75 68.03L24.75 51.51L27.25 51.51L27.25 68.03Q27.25 71.78 31 71.78L69 71.78Q72.75 71.78 72.75 68.03L72.75 38.27L72.75 35Q72.75 31.25 69 31.25L62 31.25L62 28.75ZM62 37.02L74 37.02L74 39.52L62 39.52L62 37.02Z" fill="#F14D34" fill-opacity="1.000000" fill-rule="evenodd"/>
		<path id="Rectangle" d="M55 35L44.05 32.48C43.68 32.39 43.3 32.35 42.93 32.35L39.41 32.35C36.97 32.35 35 30.37 35 27.94C35 25.5 36.97 23.52 39.41 23.52L43.5 23.52L55 20M43.5 23.52L43.5 27.94" stroke="#050C33" stroke-opacity="1.000000" stroke-width="2.500000"/>
		<rect id="Rectangle 2" x="54.000000" y="16.000000" rx="3.500000" width="7.000000" height="23.000000" stroke="#050C33" stroke-opacity="1.000000" stroke-width="2.500000"/>
		<path id="Rectangle 2.1" d="M44 32L44 40C44 41.1 43.1 42 42 42C40.89 42 40 41.1 40 40L40 32" stroke="#050C33" stroke-opacity="1.000000" stroke-width="2.500000"/>
		<path id="Vector" d="M10.45 11.3L12.51 11.3L12.51 13.8L10.45 13.8L10.45 11.3Z" fill="#F14D34" fill-opacity="1.000000" fill-rule="evenodd"/>
		<path id="Vector" d="M14.57 11.3L16.62 11.3L16.62 13.8L14.57 13.8L14.57 11.3Z" fill="#F14D34" fill-opacity="1.000000" fill-rule="evenodd"/>
		<path id="Vector" d="M18.68 11.3L20.74 11.3L20.74 13.8L18.68 13.8L18.68 11.3Z" fill="#F14D34" fill-opacity="1.000000" fill-rule="evenodd"/>
		<path id="Vector" d="M13 34.75L28 34.75L28 37.25L13 37.25L13 34.75Z" fill="#F14D34" fill-opacity="1.000000" fill-rule="evenodd"/>
		<path id="Vector" d="M13 38.75L21 38.75L21 41.25L13 41.25L13 38.75Z" fill="#F14D34" fill-opacity="1.000000" fill-rule="evenodd"/>
		<rect id="Rectangle" x="14.250000" y="23.250000" rx="4.250000" width="12.500000" height="8.500000" stroke="#F14D34" stroke-opacity="1.000000" stroke-width="2.500000"/>
		<circle id="Ellipse" r="5.750000" transform="matrix(0.707107 -0.707107 0.707107 0.707107 59.8994 58.8995)" stroke="#F14D34" stroke-opacity="1.000000" stroke-width="2.500000"/>
		<path id="Vector" d="" fill="#F14D34" fill-opacity="1.000000" fill-rule="evenodd"/>
	</g>
</svg>
