<svg width="24.000000" height="24.000000" viewBox="0 0 24 24" fill="none" xmlns="http://www.w3.org/2000/svg" xmlns:xlink="http://www.w3.org/1999/xlink">
	<desc>
			Created with Pixso.
	</desc>
	<defs/>
	<path id="Vector" d="M9.36 10.68C10.3 12.33 11.66 13.69 13.31 14.63L14.2 13.39C14.34 13.19 14.55 13.05 14.79 13C15.03 12.94 15.28 12.98 15.49 13.09C16.91 13.87 18.47 14.33 20.07 14.46C20.32 14.48 20.56 14.59 20.73 14.78C20.9 14.96 21 15.2 21 15.46L21 19.92C21 20.17 20.9 20.4 20.74 20.59C20.57 20.77 20.34 20.89 20.1 20.91C19.57 20.97 19.03 21 18.5 21C9.93 21 3 14.05 3 5.5C3 4.96 3.02 4.42 3.08 3.89C3.1 3.65 3.22 3.42 3.4 3.25C3.59 3.09 3.82 3 4.07 3L8.53 3C8.79 3 9.03 3.09 9.21 3.26C9.4 3.43 9.51 3.66 9.53 3.92C9.66 5.52 10.12 7.08 10.9 8.5C11.01 8.71 11.05 8.96 10.99 9.2C10.94 9.44 10.8 9.65 10.6 9.79L9.36 10.68ZM6.84 10.02L8.74 8.66C8.2 7.5 7.83 6.26 7.64 5L5.01 5C5 5.16 5 5.33 5 5.5C5 12.95 11.04 19 18.5 19C18.66 19 18.83 18.99 19 18.99L19 16.35C17.73 16.16 16.49 15.79 15.33 15.25L13.97 17.15C13.42 16.94 12.89 16.69 12.38 16.4L12.32 16.37C10.36 15.25 8.74 13.63 7.62 11.67L7.59 11.61C7.3 11.1 7.05 10.57 6.84 10.02Z" fill="#FFFFFF" fill-opacity="1.000000" fill-rule="nonzero"/>
</svg>
