<svg width="493.000000" height="493.000000" viewBox="0 0 493 493" fill="none" xmlns="http://www.w3.org/2000/svg" xmlns:xlink="http://www.w3.org/1999/xlink">
	<desc>
			Created with Pixso.
	</desc>
	<defs>
		<clipPath id="clip94_620">
			<rect id="right-quote-sign" rx="0.000000" width="492.000000" height="492.000000" transform="translate(0.500000 0.500000)" fill="white" fill-opacity="0"/>
		</clipPath>
	</defs>
	<g opacity="0.040000">
		<rect id="right-quote-sign" rx="0.000000" width="492.000000" height="492.000000" transform="translate(0.500000 0.500000)" fill="#FFFFFF" fill-opacity="0"/>
		<g clip-path="url(#clip94_620)">
			<path id="Vector" d="M467.71 28.91L314.01 28.91C300.05 28.91 288.72 40.24 288.72 54.2L288.72 207.91C288.72 221.86 300.05 233.19 314.01 233.19L387.57 233.19C386.61 273.43 377.26 305.64 359.56 329.86C345.61 348.97 324.47 364.8 296.21 377.29C283.21 383 277.6 398.37 283.67 411.22L301.87 449.64C307.74 461.98 322.25 467.39 334.79 461.98C368.26 447.52 396.52 429.22 419.58 406.97C447.69 379.82 466.96 349.18 477.37 315C487.79 280.82 493 234.2 493 175.04L493 54.2C493 40.24 481.67 28.91 467.71 28.91Z" fill="#050C33" fill-opacity="1.000000" fill-rule="nonzero"/>
			<path id="Vector" d="M53.61 461.88C86.68 447.47 114.79 429.17 138 406.97C166.36 379.82 185.73 349.28 196.14 315.35C206.56 281.42 211.77 234.65 211.77 175.04L211.77 54.2C211.77 40.24 200.44 28.91 186.49 28.91L32.78 28.91C18.82 28.91 7.5 40.24 7.5 54.2L7.5 207.91C7.5 221.86 18.82 233.19 32.78 233.19L106.35 233.19C105.38 273.43 96.03 305.64 78.33 329.86C64.38 348.97 43.24 364.8 14.98 377.29C1.98 383 -3.63 398.37 2.44 411.22L20.59 449.54C26.46 461.88 41.07 467.34 53.61 461.88Z" fill="#050C33" fill-opacity="1.000000" fill-rule="nonzero"/>
		</g>
	</g>
</svg>
